<?xml version="1.0" encoding="UTF-8"?>
<svg xmlns="http://www.w3.org/2000/svg" xmlns:xlink="http://www.w3.org/1999/xlink" viewBox="0 0 50 50" width="50px" height="50px">
<g id="surface124793884">
<path style="fill-rule:nonzero;fill:rgb(0%,0%,0%);fill-opacity:1;stroke-width:1;stroke-linecap:butt;stroke-linejoin:round;stroke:rgb(80.000001%,80.000001%,80.000001%);stroke-opacity:1;stroke-miterlimit:10;" d="M 142.980946 29.235349 C 149.834882 27.748302 156.350852 25.301433 162.21793 21.82715 C 163.434605 21.083626 165.002764 21.191775 166.11129 22.070485 C 167.233335 22.949195 167.706486 24.436242 167.27389 25.801622 C 166.003141 29.762575 163.907756 33.290933 161.460888 36.548918 C 163.312937 35.913543 165.394803 35.832431 167.165742 35.048352 C 168.558159 34.38594 170.234466 34.750943 171.234844 35.927062 C 172.235221 37.1167 172.329851 38.820045 171.46466 40.090794 C 167.057593 46.714914 161.420332 52.365693 155.120659 57.191838 C 155.147696 58.151659 155.228808 59.11148 155.228808 60.098339 C 155.228808 83.336832 146.428192 108.224596 129.543446 127.393987 C 112.645182 146.549859 87.460009 159.960322 55.366825 159.960322 C 35.562059 159.960322 17.136192 154.120281 1.616826 144.157065 C 0.224409 143.305392 -0.37041 141.602047 0.170335 140.074444 C 0.711079 138.546841 2.252201 137.600538 3.874434 137.816836 C 6.375377 138.114246 8.87632 138.249432 11.498931 138.249432 C 23.611607 138.249432 34.832054 134.85626 44.51138 129.11085 C 32.358148 125.771753 22.543636 116.646691 18.704351 104.709757 C 18.352867 103.560675 18.609721 102.316962 19.407319 101.411216 C 20.191398 100.518987 21.394554 100.09991 22.570674 100.302689 C 22.678823 100.329727 22.786971 100.289171 22.89512 100.302689 C 13.215795 93.556902 6.659268 82.552753 6.659268 69.872295 L 6.659268 69.439699 C 6.672787 68.250062 7.308161 67.128017 8.349094 66.519679 C 9.376509 65.897823 10.660777 65.870786 11.715229 66.438568 C 12.553383 66.911719 13.513204 67.114498 14.405432 67.506538 C 9.836142 61.301495 6.875566 53.731073 6.875566 45.471201 C 6.875566 38.644303 8.727616 32.290555 11.931526 26.761443 C 12.499308 25.774585 13.513204 25.112173 14.662286 25.031061 C 15.811368 24.949949 16.919894 25.436619 17.63638 26.342366 C 32.912411 45.079162 55.407381 57.340542 80.835889 59.773892 C 80.714221 58.557217 80.403293 57.354061 80.403293 56.110349 C 80.403293 35.548541 97.139334 18.8125 117.714661 18.8125 C 127.529173 18.8125 136.31627 23.003269 142.980946 29.235349 Z M 87.284267 56.110349 C 87.284267 58.503143 87.622232 60.8689 88.149458 63.099471 C 88.392793 64.153922 88.12242 65.24893 87.419453 66.087084 C 86.730004 66.911719 85.675552 67.344315 84.607582 67.29024 C 57.408135 65.924861 33.331488 53.393108 16.122296 34.507608 C 14.783953 37.941335 13.756539 41.550804 13.756539 45.471201 C 13.756539 56.056274 19.136946 65.370597 27.302188 70.845635 C 28.64053 71.67027 29.22183 73.319541 28.748679 74.806588 C 28.262009 76.293635 26.829036 77.280494 25.260877 77.185864 C 21.421592 77.064196 17.866197 76.117894 14.405432 74.928256 C 16.527854 87.311304 25.706992 97.288039 37.941335 99.761945 C 39.482457 100.09991 40.590983 101.438253 40.645057 103.006412 C 40.699132 104.588089 39.671717 105.980506 38.157633 106.42662 C 35.034833 107.278293 31.668699 107.710888 28.275528 107.710888 C 28.086267 107.710888 27.924044 107.710888 27.734783 107.710888 C 32.804263 117.03873 42.307846 123.635813 53.636443 123.838592 C 55.082934 123.879148 56.340165 124.825451 56.799798 126.19083 C 57.259431 127.55621 56.813316 129.070295 55.691272 129.962523 C 44.876383 138.452211 31.492957 143.575765 16.987487 144.697809 C 28.694605 150.037661 41.645434 153.079348 55.366825 153.079348 C 85.567403 153.079348 108.657191 140.60167 124.379336 122.770622 C 140.101481 104.939573 148.347834 81.592931 148.347834 60.098339 C 148.347834 58.678885 148.29376 57.299986 148.239686 55.894051 C 148.158574 54.717932 148.6858 53.582368 149.645621 52.892919 C 153.146941 50.35142 156.37789 47.471956 159.311428 44.295082 C 156.039924 45.160273 152.9712 46.566209 149.537472 46.971767 C 147.820609 47.350288 146.103745 46.403986 145.535963 44.754715 C 144.968182 43.105444 145.698187 41.293951 147.279864 40.52339 C 150.740629 38.441523 153.701205 35.683727 156.093999 32.466297 C 151.943785 34.142605 147.671904 35.45391 143.183725 36.33262 C 142.021124 36.589474 140.804449 36.224471 139.966295 35.372799 C 134.410146 29.438128 126.48824 25.693473 117.714661 25.693473 C 100.856952 25.693473 87.284267 39.266159 87.284267 56.110349 Z M 87.284267 56.110349 " transform="matrix(0.288953,0,0,0.288953,0.15,0.15)"/>
<path style=" stroke:none;fill-rule:nonzero;fill:rgb(100%,100%,100%);fill-opacity:1;" d="M 34.164062 5.585938 C 28.21875 5.585938 23.382812 10.421875 23.382812 16.363281 C 23.382812 16.722656 23.472656 17.070312 23.507812 17.421875 C 16.160156 16.71875 9.660156 13.175781 5.246094 7.761719 C 5.039062 7.5 4.71875 7.359375 4.386719 7.382812 C 4.054688 7.40625 3.761719 7.597656 3.597656 7.882812 C 2.671875 9.480469 2.136719 11.316406 2.136719 13.289062 C 2.136719 15.675781 2.992188 17.863281 4.3125 19.65625 C 4.054688 19.542969 3.777344 19.484375 3.535156 19.347656 C 3.230469 19.183594 2.859375 19.191406 2.5625 19.371094 C 2.261719 19.546875 2.078125 19.871094 2.074219 20.214844 L 2.074219 20.339844 C 2.074219 24.003906 3.96875 27.183594 6.765625 29.132812 C 6.734375 29.128906 6.703125 29.140625 6.671875 29.132812 C 6.332031 29.074219 5.984375 29.195312 5.757812 29.453125 C 5.527344 29.714844 5.453125 30.074219 5.554688 30.40625 C 6.664062 33.855469 9.5 36.492188 13.011719 37.457031 C 10.214844 39.117188 6.972656 40.097656 3.472656 40.097656 C 2.714844 40.097656 1.992188 40.058594 1.269531 39.972656 C 0.800781 39.910156 0.355469 40.183594 0.199219 40.625 C 0.0429688 41.066406 0.214844 41.558594 0.617188 41.804688 C 5.101562 44.683594 10.425781 46.371094 16.148438 46.371094 C 25.421875 46.371094 32.699219 42.496094 37.582031 36.960938 C 42.460938 31.421875 45.003906 24.230469 45.003906 17.515625 C 45.003906 17.230469 44.980469 16.953125 44.972656 16.675781 C 46.792969 15.28125 48.421875 13.648438 49.695312 11.734375 C 49.945312 11.367188 49.917969 10.875 49.628906 10.53125 C 49.339844 10.191406 48.855469 10.085938 48.453125 10.277344 C 47.941406 10.503906 47.339844 10.527344 46.804688 10.710938 C 47.511719 9.769531 48.117188 8.75 48.484375 7.605469 C 48.609375 7.210938 48.472656 6.78125 48.148438 6.527344 C 47.828125 6.273438 47.375 6.242188 47.023438 6.457031 C 45.328125 7.460938 43.445312 8.167969 41.464844 8.597656 C 39.539062 6.796875 37 5.585938 34.164062 5.585938 Z M 34.164062 7.574219 C 36.699219 7.574219 38.988281 8.65625 40.59375 10.371094 C 40.835938 10.617188 41.1875 10.722656 41.523438 10.648438 C 42.820312 10.394531 44.054688 10.015625 45.253906 9.53125 C 44.5625 10.460938 43.707031 11.257812 42.707031 11.859375 C 42.25 12.082031 42.039062 12.605469 42.203125 13.082031 C 42.367188 13.558594 42.863281 13.832031 43.359375 13.722656 C 44.351562 13.605469 45.238281 13.199219 46.183594 12.949219 C 45.335938 13.867188 44.402344 14.699219 43.390625 15.433594 C 43.113281 15.632812 42.960938 15.960938 42.984375 16.300781 C 43 16.707031 43.015625 17.105469 43.015625 17.515625 C 43.015625 23.726562 40.632812 30.472656 36.089844 35.625 C 31.546875 40.777344 24.875 44.382812 16.148438 44.382812 C 12.183594 44.382812 8.441406 43.503906 5.058594 41.960938 C 9.25 41.636719 13.117188 40.15625 16.242188 37.703125 C 16.566406 37.445312 16.695312 37.007812 16.5625 36.613281 C 16.429688 36.21875 16.066406 35.945312 15.648438 35.933594 C 12.375 35.875 9.628906 33.96875 8.164062 31.273438 C 8.21875 31.273438 8.265625 31.273438 8.320312 31.273438 C 9.300781 31.273438 10.273438 31.148438 11.175781 30.902344 C 11.613281 30.773438 11.910156 30.371094 11.894531 29.914062 C 11.878906 29.460938 11.558594 29.074219 11.113281 28.976562 C 7.578125 28.261719 4.925781 25.378906 4.3125 21.800781 C 5.3125 22.144531 6.339844 22.417969 7.449219 22.453125 C 7.902344 22.480469 8.316406 22.195312 8.457031 21.765625 C 8.59375 21.335938 8.425781 20.859375 8.039062 20.621094 C 5.679688 19.039062 4.125 16.347656 4.125 13.289062 C 4.125 12.15625 4.421875 11.113281 4.808594 10.121094 C 9.78125 15.578125 16.738281 19.199219 24.597656 19.59375 C 24.90625 19.609375 25.210938 19.484375 25.410156 19.246094 C 25.613281 19.003906 25.691406 18.6875 25.621094 18.382812 C 25.46875 17.738281 25.371094 17.054688 25.371094 16.363281 C 25.371094 11.496094 29.292969 7.574219 34.164062 7.574219 Z M 34.164062 7.574219 "/>
</g>
</svg>
